<svg width="1200" height="675" viewBox="0 0 1200 675" fill="none" xmlns="http://www.w3.org/2000/svg">
<g clip-path="url(#clip0_2881_141)">
<rect width="1200" height="675" fill="black"/>
<rect width="1200" height="675" fill="white" fill-opacity="0.04"/>
<path opacity="0.2" d="M455.127 368.56L478.692 344.787L497.352 363.612L454.773 406.569L387.704 338.906L454.772 271.242L545.761 363.038L527.101 381.862L455.127 309.25L454.772 308.892L454.417 309.25L425.372 338.553L425.023 338.905L425.372 339.257L454.417 368.56L454.772 368.919L455.127 368.56ZM551.591 173.565L642.579 265.36L623.919 284.186L551.946 211.574L551.591 211.215L551.235 211.574L522.19 240.877L521.841 241.229L522.19 241.581L545.761 265.361L527.102 284.186L484.522 241.228L551.591 173.565ZM576.079 393.627L648.053 466.239L648.408 466.598L648.763 466.239L677.808 436.936L678.157 436.584L677.808 436.232L654.237 412.452L672.898 393.626L715.478 436.583L648.409 504.247L557.42 412.451L576.079 393.627ZM672.899 295.949L744.873 368.562L745.228 368.92L745.583 368.562L774.628 339.258L774.977 338.906L774.628 338.554L745.583 309.251L745.228 308.893L744.873 309.251L721.308 333.025L702.648 314.199L745.227 271.242L812.296 338.906L745.227 406.57L654.239 314.774L672.899 295.949ZM551.946 466.237L575.51 442.464L594.17 461.289L551.591 504.247L484.522 436.583L575.51 344.786L594.17 363.612L522.19 436.23L521.841 436.582L522.19 436.934L551.235 466.237L551.591 466.596L551.946 466.237ZM624.497 333.016L605.838 314.191L677.818 241.572L678.167 241.22L677.818 240.868L648.772 211.565L648.417 211.207L648.062 211.565L624.497 235.339L605.838 216.514L648.417 173.556L715.486 241.22L624.497 333.016ZM594.17 265.935L527.67 333.024L509.011 314.199L575.51 247.11L594.17 265.935ZM557.421 314.774L576.08 295.949L642.579 363.038L623.92 381.863L557.421 314.774ZM690.988 363.613L624.489 430.702L605.829 411.876L672.328 344.787L690.988 363.613ZM600.381 194.154L565.964 159.432L600.381 124.71L634.797 159.432L600.381 194.154ZM600.381 550.29L565.965 515.568L600.381 480.846L634.798 515.568L600.381 550.29Z" stroke="white"/>
<path opacity="0.2" d="M455.127 -121.44L478.692 -145.213L497.352 -126.388L454.773 -83.4305L387.704 -151.094L454.772 -218.758L545.761 -126.962L527.101 -108.138L455.127 -180.75L454.772 -181.108L454.417 -180.75L425.372 -151.447L425.023 -151.095L425.372 -150.743L454.417 -121.44L454.772 -121.081L455.127 -121.44ZM551.591 -316.435L642.579 -224.64L623.919 -205.814L551.946 -278.426L551.591 -278.785L551.235 -278.426L522.19 -249.123L521.841 -248.771L522.19 -248.419L545.761 -224.639L527.102 -205.814L484.522 -248.772L551.591 -316.435ZM576.079 -96.3728L648.053 -23.7605L648.408 -23.4023L648.763 -23.7605L677.808 -53.0637L678.157 -53.4156L677.808 -53.7676L654.237 -77.5476L672.898 -96.374L715.478 -53.4169L648.409 14.2469L557.42 -77.5488L576.079 -96.3728ZM672.899 -194.051L744.873 -121.438L745.228 -121.08L745.583 -121.438L774.628 -150.742L774.977 -151.094L774.628 -151.446L745.583 -180.749L745.228 -181.107L744.873 -180.749L721.308 -156.975L702.648 -175.801L745.227 -218.758L812.296 -151.094L745.227 -83.4303L654.239 -175.226L672.899 -194.051ZM551.946 -23.7625L575.51 -47.5362L594.17 -28.7107L551.591 14.2465L484.522 -53.4172L575.51 -145.214L594.17 -126.388L522.19 -53.7696L521.841 -53.4176L522.19 -53.0656L551.235 -23.7625L551.591 -23.4042L551.946 -23.7625ZM624.497 -156.984L605.838 -175.809L677.818 -248.428L678.167 -248.78L677.818 -249.132L648.772 -278.435L648.417 -278.793L648.062 -278.435L624.497 -254.661L605.838 -273.486L648.417 -316.444L715.486 -248.78L624.497 -156.984ZM594.17 -224.065L527.67 -156.976L509.011 -175.801L575.51 -242.89L594.17 -224.065ZM557.421 -175.226L576.08 -194.051L642.579 -126.962L623.92 -108.137L557.421 -175.226ZM690.988 -126.387L624.489 -59.2982L605.829 -78.1237L672.328 -145.213L690.988 -126.387ZM600.381 -295.846L565.964 -330.568L600.381 -365.29L634.797 -330.568L600.381 -295.846ZM600.381 60.2897L565.965 25.568L600.381 -9.15384L634.798 25.568L600.381 60.2897Z" stroke="white"/>
<path opacity="0.2" d="M941.127 -121.44L964.692 -145.213L983.352 -126.388L940.773 -83.4305L873.704 -151.094L940.772 -218.758L1031.76 -126.962L1013.1 -108.138L941.127 -180.75L940.772 -181.108L940.417 -180.75L911.372 -151.447L911.023 -151.095L911.372 -150.743L940.417 -121.44L940.772 -121.081L941.127 -121.44ZM1037.59 -316.435L1128.58 -224.64L1109.92 -205.814L1037.95 -278.426L1037.59 -278.785L1037.24 -278.426L1008.19 -249.123L1007.84 -248.771L1008.19 -248.419L1031.76 -224.639L1013.1 -205.814L970.522 -248.772L1037.59 -316.435ZM1062.08 -96.3728L1134.05 -23.7605L1134.41 -23.4023L1134.76 -23.7605L1163.81 -53.0637L1164.16 -53.4156L1163.81 -53.7676L1140.24 -77.5476L1158.9 -96.374L1201.48 -53.4169L1134.41 14.2469L1043.42 -77.5488L1062.08 -96.3728ZM1158.9 -194.051L1230.87 -121.438L1231.23 -121.08L1231.58 -121.438L1260.63 -150.742L1260.98 -151.094L1260.63 -151.446L1231.58 -180.749L1231.23 -181.107L1230.87 -180.749L1207.31 -156.975L1188.65 -175.801L1231.23 -218.758L1298.3 -151.094L1231.23 -83.4303L1140.24 -175.226L1158.9 -194.051ZM1037.95 -23.7625L1061.51 -47.5362L1080.17 -28.7107L1037.59 14.2465L970.522 -53.4172L1061.51 -145.214L1080.17 -126.388L1008.19 -53.7696L1007.84 -53.4176L1008.19 -53.0656L1037.24 -23.7625L1037.59 -23.4042L1037.95 -23.7625ZM1110.5 -156.984L1091.84 -175.809L1163.82 -248.428L1164.17 -248.78L1163.82 -249.132L1134.77 -278.435L1134.42 -278.793L1134.06 -278.435L1110.5 -254.661L1091.84 -273.486L1134.42 -316.444L1201.49 -248.78L1110.5 -156.984ZM1080.17 -224.065L1013.67 -156.976L995.011 -175.801L1061.51 -242.89L1080.17 -224.065ZM1043.42 -175.226L1062.08 -194.051L1128.58 -126.962L1109.92 -108.137L1043.42 -175.226ZM1176.99 -126.387L1110.49 -59.2982L1091.83 -78.1237L1158.33 -145.213L1176.99 -126.387ZM1086.38 -295.846L1051.96 -330.568L1086.38 -365.29L1120.8 -330.568L1086.38 -295.846ZM1086.38 60.2897L1051.96 25.568L1086.38 -9.15384L1120.8 25.568L1086.38 60.2897Z" stroke="white"/>
<path opacity="0.2" d="M-30.8725 -121.44L-7.30784 -145.213L11.3522 -126.388L-31.2272 -83.4305L-98.296 -151.094L-31.228 -218.758L59.7605 -126.962L41.1013 -108.138L-30.8725 -180.75L-31.2276 -181.108L-31.5827 -180.75L-60.6282 -151.447L-60.9771 -151.095L-60.6282 -150.743L-31.5827 -121.44L-31.2276 -121.081L-30.8725 -121.44ZM65.591 -316.435L156.579 -224.64L137.919 -205.814L65.9457 -278.426L65.5906 -278.785L65.2355 -278.426L36.19 -249.123L35.8411 -248.771L36.19 -248.419L59.7609 -224.639L41.1016 -205.814L-1.47781 -248.772L65.591 -316.435ZM90.0788 -96.3728L162.053 -23.7605L162.408 -23.4023L162.763 -23.7605L191.808 -53.0637L192.157 -53.4156L191.808 -53.7676L168.237 -77.5476L186.898 -96.374L229.478 -53.4169L162.409 14.2469L71.4204 -77.5488L90.0788 -96.3728ZM186.899 -194.051L258.873 -121.438L259.228 -121.08L259.583 -121.438L288.628 -150.742L288.977 -151.094L288.628 -151.446L259.583 -180.749L259.228 -181.107L258.873 -180.749L235.308 -156.975L216.648 -175.801L259.227 -218.758L326.296 -151.094L259.227 -83.4303L168.239 -175.226L186.899 -194.051ZM65.9457 -23.7625L89.5103 -47.5362L108.17 -28.7107L65.5909 14.2465L-1.47782 -53.4172L89.5099 -145.214L108.17 -126.388L36.19 -53.7696L35.8411 -53.4176L36.19 -53.0656L65.2354 -23.7625L65.5905 -23.4042L65.9457 -23.7625ZM138.497 -156.984L119.838 -175.809L191.818 -248.428L192.167 -248.78L191.818 -249.132L162.772 -278.435L162.417 -278.793L162.062 -278.435L138.497 -254.661L119.838 -273.486L162.417 -316.444L229.486 -248.78L138.497 -156.984ZM108.17 -224.065L41.6704 -156.976L23.0111 -175.801L89.5103 -242.89L108.17 -224.065ZM71.4208 -175.226L90.08 -194.051L156.579 -126.962L137.92 -108.137L71.4208 -175.226ZM204.988 -126.387L138.489 -59.2982L119.829 -78.1237L186.328 -145.213L204.988 -126.387ZM114.381 -295.846L79.9645 -330.568L114.381 -365.29L148.797 -330.568L114.381 -295.846ZM114.381 60.2897L79.9647 25.568L114.381 -9.15384L148.798 25.568L114.381 60.2897Z" stroke="white"/>
<path opacity="0.2" d="M455.127 858.56L478.692 834.787L497.352 853.612L454.773 896.569L387.704 828.906L454.772 761.242L545.761 853.038L527.101 871.862L455.127 799.25L454.772 798.892L454.417 799.25L425.372 828.553L425.023 828.905L425.372 829.257L454.417 858.56L454.772 858.919L455.127 858.56ZM551.591 663.565L642.579 755.36L623.919 774.186L551.946 701.574L551.591 701.215L551.235 701.574L522.19 730.877L521.841 731.229L522.19 731.581L545.761 755.361L527.102 774.186L484.522 731.228L551.591 663.565ZM576.079 883.627L648.053 956.239L648.408 956.598L648.763 956.239L677.808 926.936L678.157 926.584L677.808 926.232L654.237 902.452L672.898 883.626L715.478 926.583L648.409 994.247L557.42 902.451L576.079 883.627ZM672.899 785.949L744.873 858.562L745.228 858.92L745.583 858.562L774.628 829.258L774.977 828.906L774.628 828.554L745.583 799.251L745.228 798.893L744.873 799.251L721.308 823.025L702.648 804.199L745.227 761.242L812.296 828.906L745.227 896.57L654.239 804.774L672.899 785.949ZM551.946 956.237L575.51 932.464L594.17 951.289L551.591 994.247L484.522 926.583L575.51 834.786L594.17 853.612L522.19 926.23L521.841 926.582L522.19 926.934L551.235 956.237L551.591 956.596L551.946 956.237ZM624.497 823.016L605.838 804.191L677.818 731.572L678.167 731.22L677.818 730.868L648.772 701.565L648.417 701.207L648.062 701.565L624.497 725.339L605.838 706.514L648.417 663.556L715.486 731.22L624.497 823.016ZM594.17 755.935L527.67 823.024L509.011 804.199L575.51 737.11L594.17 755.935ZM557.421 804.774L576.08 785.949L642.579 853.038L623.92 871.863L557.421 804.774ZM690.988 853.613L624.489 920.702L605.829 901.876L672.328 834.787L690.988 853.613ZM600.381 684.154L565.964 649.432L600.381 614.71L634.797 649.432L600.381 684.154ZM600.381 1040.29L565.965 1005.57L600.381 970.846L634.798 1005.57L600.381 1040.29Z" stroke="white"/>
<path opacity="0.2" d="M941.127 858.56L964.692 834.787L983.352 853.612L940.773 896.569L873.704 828.906L940.772 761.242L1031.76 853.038L1013.1 871.862L941.127 799.25L940.772 798.892L940.417 799.25L911.372 828.553L911.023 828.905L911.372 829.257L940.417 858.56L940.772 858.919L941.127 858.56ZM1037.59 663.565L1128.58 755.36L1109.92 774.186L1037.95 701.574L1037.59 701.215L1037.24 701.574L1008.19 730.877L1007.84 731.229L1008.19 731.581L1031.76 755.361L1013.1 774.186L970.522 731.228L1037.59 663.565ZM1062.08 883.627L1134.05 956.239L1134.41 956.598L1134.76 956.239L1163.81 926.936L1164.16 926.584L1163.81 926.232L1140.24 902.452L1158.9 883.626L1201.48 926.583L1134.41 994.247L1043.42 902.451L1062.08 883.627ZM1158.9 785.949L1230.87 858.562L1231.23 858.92L1231.58 858.562L1260.63 829.258L1260.98 828.906L1260.63 828.554L1231.58 799.251L1231.23 798.893L1230.87 799.251L1207.31 823.025L1188.65 804.199L1231.23 761.242L1298.3 828.906L1231.23 896.57L1140.24 804.774L1158.9 785.949ZM1037.95 956.237L1061.51 932.464L1080.17 951.289L1037.59 994.247L970.522 926.583L1061.51 834.786L1080.17 853.612L1008.19 926.23L1007.84 926.582L1008.19 926.934L1037.24 956.237L1037.59 956.596L1037.95 956.237ZM1110.5 823.016L1091.84 804.191L1163.82 731.572L1164.17 731.22L1163.82 730.868L1134.77 701.565L1134.42 701.207L1134.06 701.565L1110.5 725.339L1091.84 706.514L1134.42 663.556L1201.49 731.22L1110.5 823.016ZM1080.17 755.935L1013.67 823.024L995.011 804.199L1061.51 737.11L1080.17 755.935ZM1043.42 804.774L1062.08 785.949L1128.58 853.038L1109.92 871.863L1043.42 804.774ZM1176.99 853.613L1110.49 920.702L1091.83 901.876L1158.33 834.787L1176.99 853.613ZM1086.38 684.154L1051.96 649.432L1086.38 614.71L1120.8 649.432L1086.38 684.154ZM1086.38 1040.29L1051.96 1005.57L1086.38 970.846L1120.8 1005.57L1086.38 1040.29Z" stroke="white"/>
<path opacity="0.2" d="M-30.8725 858.56L-7.30784 834.787L11.3522 853.612L-31.2272 896.569L-98.296 828.906L-31.228 761.242L59.7605 853.038L41.1013 871.862L-30.8725 799.25L-31.2276 798.892L-31.5827 799.25L-60.6282 828.553L-60.9771 828.905L-60.6282 829.257L-31.5827 858.56L-31.2276 858.919L-30.8725 858.56ZM65.591 663.565L156.579 755.36L137.919 774.186L65.9457 701.574L65.5906 701.215L65.2355 701.574L36.19 730.877L35.8411 731.229L36.19 731.581L59.7609 755.361L41.1016 774.186L-1.47781 731.228L65.591 663.565ZM90.0788 883.627L162.053 956.239L162.408 956.598L162.763 956.239L191.808 926.936L192.157 926.584L191.808 926.232L168.237 902.452L186.898 883.626L229.478 926.583L162.409 994.247L71.4204 902.451L90.0788 883.627ZM186.899 785.949L258.873 858.562L259.228 858.92L259.583 858.562L288.628 829.258L288.977 828.906L288.628 828.554L259.583 799.251L259.228 798.893L258.873 799.251L235.308 823.025L216.648 804.199L259.227 761.242L326.296 828.906L259.227 896.57L168.239 804.774L186.899 785.949ZM65.9457 956.237L89.5103 932.464L108.17 951.289L65.5909 994.247L-1.47782 926.583L89.5099 834.786L108.17 853.612L36.19 926.23L35.8411 926.582L36.19 926.934L65.2354 956.237L65.5905 956.596L65.9457 956.237ZM138.497 823.016L119.838 804.191L191.818 731.572L192.167 731.22L191.818 730.868L162.772 701.565L162.417 701.207L162.062 701.565L138.497 725.339L119.838 706.514L162.417 663.556L229.486 731.22L138.497 823.016ZM108.17 755.935L41.6704 823.024L23.0111 804.199L89.5103 737.11L108.17 755.935ZM71.4208 804.774L90.08 785.949L156.579 853.038L137.92 871.863L71.4208 804.774ZM204.988 853.613L138.489 920.702L119.829 901.876L186.328 834.787L204.988 853.613ZM114.381 684.154L79.9645 649.432L114.381 614.71L148.797 649.432L114.381 684.154ZM114.381 1040.29L79.9647 1005.57L114.381 970.846L148.798 1005.57L114.381 1040.29Z" stroke="white"/>
<path opacity="0.2" d="M-30.8725 368.56L-7.30784 344.787L11.3522 363.612L-31.2272 406.569L-98.296 338.906L-31.228 271.242L59.7605 363.038L41.1013 381.862L-30.8725 309.25L-31.2276 308.892L-31.5827 309.25L-60.6282 338.553L-60.9771 338.905L-60.6282 339.257L-31.5827 368.56L-31.2276 368.919L-30.8725 368.56ZM65.591 173.565L156.579 265.36L137.919 284.186L65.9457 211.574L65.5906 211.215L65.2355 211.574L36.19 240.877L35.8411 241.229L36.19 241.581L59.7609 265.361L41.1016 284.186L-1.47781 241.228L65.591 173.565ZM90.0788 393.627L162.053 466.239L162.408 466.598L162.763 466.239L191.808 436.936L192.157 436.584L191.808 436.232L168.237 412.452L186.898 393.626L229.478 436.583L162.409 504.247L71.4204 412.451L90.0788 393.627ZM186.899 295.949L258.873 368.562L259.228 368.92L259.583 368.562L288.628 339.258L288.977 338.906L288.628 338.554L259.583 309.251L259.228 308.893L258.873 309.251L235.308 333.025L216.648 314.199L259.227 271.242L326.296 338.906L259.227 406.57L168.239 314.774L186.899 295.949ZM65.9457 466.237L89.5103 442.464L108.17 461.289L65.5909 504.247L-1.47782 436.583L89.5099 344.786L108.17 363.612L36.19 436.23L35.8411 436.582L36.19 436.934L65.2354 466.237L65.5905 466.596L65.9457 466.237ZM138.497 333.016L119.838 314.191L191.818 241.572L192.167 241.22L191.818 240.868L162.772 211.565L162.417 211.207L162.062 211.565L138.497 235.339L119.838 216.514L162.417 173.556L229.486 241.22L138.497 333.016ZM108.17 265.935L41.6704 333.024L23.0111 314.199L89.5103 247.11L108.17 265.935ZM71.4208 314.774L90.08 295.949L156.579 363.038L137.92 381.863L71.4208 314.774ZM204.988 363.613L138.489 430.702L119.829 411.876L186.328 344.787L204.988 363.613ZM114.381 194.154L79.9645 159.432L114.381 124.71L148.797 159.432L114.381 194.154ZM114.381 550.29L79.9647 515.568L114.381 480.846L148.798 515.568L114.381 550.29Z" stroke="white"/>
<path opacity="0.2" d="M698.127 122.56L721.692 98.7867L740.352 117.612L697.773 160.569L630.704 92.9057L697.772 25.242L788.761 117.038L770.101 135.862L698.127 63.2502L697.772 62.892L697.417 63.2502L668.372 92.5534L668.023 92.9053L668.372 93.2573L697.417 122.56L697.772 122.919L698.127 122.56ZM794.591 -72.4353L885.579 19.3604L866.919 38.1859L794.946 -34.4263L794.591 -34.7846L794.235 -34.4263L765.19 -5.12319L764.841 -4.7712L765.19 -4.41921L788.761 19.3608L770.102 38.1856L727.522 -4.77158L794.591 -72.4353ZM819.079 147.627L891.053 220.239L891.408 220.598L891.763 220.239L920.808 190.936L921.157 190.584L920.808 190.232L897.237 166.452L915.898 147.626L958.478 190.583L891.409 258.247L800.42 166.451L819.079 147.627ZM915.899 49.9492L987.873 122.562L988.228 122.92L988.583 122.562L1017.63 93.2584L1017.98 92.9064L1017.63 92.5544L988.583 63.2513L988.228 62.893L987.873 63.2513L964.308 87.025L945.648 68.1994L988.227 25.2423L1055.3 92.906L988.227 160.57L897.239 68.774L915.899 49.9492ZM794.946 220.237L818.51 196.464L837.17 215.289L794.591 258.247L727.522 190.583L818.51 98.7863L837.17 117.612L765.19 190.23L764.841 190.582L765.19 190.934L794.235 220.237L794.591 220.596L794.946 220.237ZM867.497 87.0155L848.838 68.1908L920.818 -4.4278L921.167 -4.77979L920.818 -5.13178L891.772 -34.4349L891.417 -34.7932L891.062 -34.4349L867.497 -10.6612L848.838 -29.486L891.417 -72.4439L958.486 -4.7802L867.497 87.0155ZM837.17 19.935L770.67 87.0242L752.011 68.1994L818.51 1.11025L837.17 19.935ZM800.421 68.7737L819.08 49.9489L885.579 117.038L866.92 135.863L800.421 68.7737ZM933.988 117.613L867.489 184.702L848.829 165.876L915.328 98.7871L933.988 117.613ZM843.381 -51.8462L808.964 -86.568L843.381 -121.29L877.797 -86.568L843.381 -51.8462ZM843.381 304.29L808.965 269.568L843.381 234.846L877.798 269.568L843.381 304.29Z" stroke="white"/>
<path opacity="0.2" d="M698.127 615.56L721.692 591.787L740.352 610.612L697.773 653.569L630.704 585.906L697.772 518.242L788.761 610.038L770.101 628.862L698.127 556.25L697.772 555.892L697.417 556.25L668.372 585.553L668.023 585.905L668.372 586.257L697.417 615.56L697.772 615.919L698.127 615.56ZM794.591 420.565L885.579 512.36L866.919 531.186L794.946 458.574L794.591 458.215L794.235 458.574L765.19 487.877L764.841 488.229L765.19 488.581L788.761 512.361L770.102 531.186L727.522 488.228L794.591 420.565ZM819.079 640.627L891.053 713.239L891.408 713.598L891.763 713.239L920.808 683.936L921.157 683.584L920.808 683.232L897.237 659.452L915.898 640.626L958.478 683.583L891.409 751.247L800.42 659.451L819.079 640.627ZM915.899 542.949L987.873 615.562L988.228 615.92L988.583 615.562L1017.63 586.258L1017.98 585.906L1017.63 585.554L988.583 556.251L988.228 555.893L987.873 556.251L964.308 580.025L945.648 561.199L988.227 518.242L1055.3 585.906L988.227 653.57L897.239 561.774L915.899 542.949ZM794.946 713.237L818.51 689.464L837.17 708.289L794.591 751.247L727.522 683.583L818.51 591.786L837.17 610.612L765.19 683.23L764.841 683.582L765.19 683.934L794.235 713.237L794.591 713.596L794.946 713.237ZM867.497 580.016L848.838 561.191L920.818 488.572L921.167 488.22L920.818 487.868L891.772 458.565L891.417 458.207L891.062 458.565L867.497 482.339L848.838 463.514L891.417 420.556L958.486 488.22L867.497 580.016ZM837.17 512.935L770.67 580.024L752.011 561.199L818.51 494.11L837.17 512.935ZM800.421 561.774L819.08 542.949L885.579 610.038L866.92 628.863L800.421 561.774ZM933.988 610.613L867.489 677.702L848.829 658.876L915.328 591.787L933.988 610.613ZM843.381 441.154L808.964 406.432L843.381 371.71L877.797 406.432L843.381 441.154ZM843.381 797.29L808.965 762.568L843.381 727.846L877.798 762.568L843.381 797.29Z" stroke="white"/>
<path opacity="0.2" d="M941.127 368.56L964.692 344.787L983.352 363.612L940.773 406.569L873.704 338.906L940.772 271.242L1031.76 363.038L1013.1 381.862L941.127 309.25L940.772 308.892L940.417 309.25L911.372 338.553L911.023 338.905L911.372 339.257L940.417 368.56L940.772 368.919L941.127 368.56ZM1037.59 173.565L1128.58 265.36L1109.92 284.186L1037.95 211.574L1037.59 211.215L1037.24 211.574L1008.19 240.877L1007.84 241.229L1008.19 241.581L1031.76 265.361L1013.1 284.186L970.522 241.228L1037.59 173.565ZM1062.08 393.627L1134.05 466.239L1134.41 466.598L1134.76 466.239L1163.81 436.936L1164.16 436.584L1163.81 436.232L1140.24 412.452L1158.9 393.626L1201.48 436.583L1134.41 504.247L1043.42 412.451L1062.08 393.627ZM1158.9 295.949L1230.87 368.562L1231.23 368.92L1231.58 368.562L1260.63 339.258L1260.98 338.906L1260.63 338.554L1231.58 309.251L1231.23 308.893L1230.87 309.251L1207.31 333.025L1188.65 314.199L1231.23 271.242L1298.3 338.906L1231.23 406.57L1140.24 314.774L1158.9 295.949ZM1037.95 466.237L1061.51 442.464L1080.17 461.289L1037.59 504.247L970.522 436.583L1061.51 344.786L1080.17 363.612L1008.19 436.23L1007.84 436.582L1008.19 436.934L1037.24 466.237L1037.59 466.596L1037.95 466.237ZM1110.5 333.016L1091.84 314.191L1163.82 241.572L1164.17 241.22L1163.82 240.868L1134.77 211.565L1134.42 211.207L1134.06 211.565L1110.5 235.339L1091.84 216.514L1134.42 173.556L1201.49 241.22L1110.5 333.016ZM1080.17 265.935L1013.67 333.024L995.011 314.199L1061.51 247.11L1080.17 265.935ZM1043.42 314.774L1062.08 295.949L1128.58 363.038L1109.92 381.863L1043.42 314.774ZM1176.99 363.613L1110.49 430.702L1091.83 411.876L1158.33 344.787L1176.99 363.613ZM1086.38 194.154L1051.96 159.432L1086.38 124.71L1120.8 159.432L1086.38 194.154ZM1086.38 550.29L1051.96 515.568L1086.38 480.846L1120.8 515.568L1086.38 550.29Z" stroke="white"/>
<path opacity="0.2" d="M1184.13 122.56L1207.69 98.7867L1226.35 117.612L1183.77 160.569L1116.7 92.9057L1183.77 25.242L1274.76 117.038L1256.1 135.862L1184.13 63.2502L1183.77 62.892L1183.42 63.2502L1154.37 92.5534L1154.02 92.9053L1154.37 93.2573L1183.42 122.56L1183.77 122.919L1184.13 122.56ZM1280.59 -72.4353L1371.58 19.3604L1352.92 38.1859L1280.95 -34.4263L1280.59 -34.7846L1280.24 -34.4263L1251.19 -5.12319L1250.84 -4.7712L1251.19 -4.41921L1274.76 19.3608L1256.1 38.1856L1213.52 -4.77158L1280.59 -72.4353ZM1305.08 147.627L1377.05 220.239L1377.41 220.598L1377.76 220.239L1406.81 190.936L1407.16 190.584L1406.81 190.232L1383.24 166.452L1401.9 147.626L1444.48 190.583L1377.41 258.247L1286.42 166.451L1305.08 147.627ZM1401.9 49.9492L1473.87 122.562L1474.23 122.92L1474.58 122.562L1503.63 93.2584L1503.98 92.9064L1503.63 92.5544L1474.58 63.2513L1474.23 62.893L1473.87 63.2513L1450.31 87.025L1431.65 68.1994L1474.23 25.2423L1541.3 92.906L1474.23 160.57L1383.24 68.774L1401.9 49.9492ZM1280.95 220.237L1304.51 196.464L1323.17 215.289L1280.59 258.247L1213.52 190.583L1304.51 98.7863L1323.17 117.612L1251.19 190.23L1250.84 190.582L1251.19 190.934L1280.24 220.237L1280.59 220.596L1280.95 220.237ZM1353.5 87.0155L1334.84 68.1908L1406.82 -4.4278L1407.17 -4.77979L1406.82 -5.13178L1377.77 -34.4349L1377.42 -34.7932L1377.06 -34.4349L1353.5 -10.6612L1334.84 -29.486L1377.42 -72.4439L1444.49 -4.7802L1353.5 87.0155ZM1323.17 19.935L1256.67 87.0242L1238.01 68.1994L1304.51 1.11025L1323.17 19.935ZM1286.42 68.7737L1305.08 49.9489L1371.58 117.038L1352.92 135.863L1286.42 68.7737ZM1419.99 117.613L1353.49 184.702L1334.83 165.876L1401.33 98.7871L1419.99 117.613ZM1329.38 -51.8462L1294.96 -86.568L1329.38 -121.29L1363.8 -86.568L1329.38 -51.8462ZM1329.38 304.29L1294.96 269.568L1329.38 234.846L1363.8 269.568L1329.38 304.29Z" stroke="white"/>
<path opacity="0.2" d="M-271.873 122.56L-248.308 98.7867L-229.648 117.612L-272.227 160.569L-339.296 92.9057L-272.228 25.242L-181.239 117.038L-199.899 135.862L-271.873 63.2502L-272.228 62.892L-272.583 63.2502L-301.628 92.5534L-301.977 92.9053L-301.628 93.2573L-272.583 122.56L-272.228 122.919L-271.873 122.56ZM-175.409 -72.4353L-84.4205 19.3604L-103.081 38.1859L-175.054 -34.4263L-175.409 -34.7846L-175.765 -34.4263L-204.81 -5.12319L-205.159 -4.7712L-204.81 -4.41921L-181.239 19.3608L-199.898 38.1856L-242.478 -4.77158L-175.409 -72.4353ZM-150.921 147.627L-78.9474 220.239L-78.5923 220.598L-78.2372 220.239L-49.1917 190.936L-48.8428 190.584L-49.1917 190.232L-72.7626 166.452L-54.1017 147.626L-11.5223 190.583L-78.5911 258.247L-169.58 166.451L-150.921 147.627ZM-54.1013 49.9492L17.8726 122.562L18.2277 122.92L18.5828 122.562L47.6282 93.2584L47.9771 92.9064L47.6282 92.5544L18.5827 63.2513L18.2276 62.893L17.8725 63.2513L-5.69214 87.025L-24.3522 68.1994L18.2273 25.2423L85.296 92.906L18.2273 160.57L-72.7613 68.774L-54.1013 49.9492ZM-175.054 220.237L-151.49 196.464L-132.83 215.289L-175.409 258.247L-242.478 190.583L-151.49 98.7863L-132.83 117.612L-204.81 190.23L-205.159 190.582L-204.81 190.934L-175.765 220.237L-175.409 220.596L-175.054 220.237ZM-102.503 87.0155L-121.162 68.1908L-49.1823 -4.4278L-48.8333 -4.77979L-49.1823 -5.13178L-78.2278 -34.4349L-78.5829 -34.7932L-78.938 -34.4349L-102.503 -10.6612L-121.162 -29.486L-78.5832 -72.4439L-11.5145 -4.7802L-102.503 87.0155ZM-132.83 19.935L-199.33 87.0242L-217.989 68.1994L-151.49 1.11025L-132.83 19.935ZM-169.579 68.7737L-150.92 49.9489L-84.4207 117.038L-103.08 135.863L-169.579 68.7737ZM-36.0116 117.613L-102.511 184.702L-121.171 165.876L-54.6716 98.7871L-36.0116 117.613ZM-126.619 -51.8462L-161.036 -86.568L-126.619 -121.29L-92.2025 -86.568L-126.619 -51.8462ZM-126.619 304.29L-161.035 269.568L-126.619 234.846L-92.2023 269.568L-126.619 304.29Z" stroke="white"/>
<path opacity="0.2" d="M1184.13 615.56L1207.69 591.787L1226.35 610.612L1183.77 653.569L1116.7 585.906L1183.77 518.242L1274.76 610.038L1256.1 628.862L1184.13 556.25L1183.77 555.892L1183.42 556.25L1154.37 585.553L1154.02 585.905L1154.37 586.257L1183.42 615.56L1183.77 615.919L1184.13 615.56ZM1280.59 420.565L1371.58 512.36L1352.92 531.186L1280.95 458.574L1280.59 458.215L1280.24 458.574L1251.19 487.877L1250.84 488.229L1251.19 488.581L1274.76 512.361L1256.1 531.186L1213.52 488.228L1280.59 420.565ZM1305.08 640.627L1377.05 713.239L1377.41 713.598L1377.76 713.239L1406.81 683.936L1407.16 683.584L1406.81 683.232L1383.24 659.452L1401.9 640.626L1444.48 683.583L1377.41 751.247L1286.42 659.451L1305.08 640.627ZM1401.9 542.949L1473.87 615.562L1474.23 615.92L1474.58 615.562L1503.63 586.258L1503.98 585.906L1503.63 585.554L1474.58 556.251L1474.23 555.893L1473.87 556.251L1450.31 580.025L1431.65 561.199L1474.23 518.242L1541.3 585.906L1474.23 653.57L1383.24 561.774L1401.9 542.949ZM1280.95 713.237L1304.51 689.464L1323.17 708.289L1280.59 751.247L1213.52 683.583L1304.51 591.786L1323.17 610.612L1251.19 683.23L1250.84 683.582L1251.19 683.934L1280.24 713.237L1280.59 713.596L1280.95 713.237ZM1353.5 580.016L1334.84 561.191L1406.82 488.572L1407.17 488.22L1406.82 487.868L1377.77 458.565L1377.42 458.207L1377.06 458.565L1353.5 482.339L1334.84 463.514L1377.42 420.556L1444.49 488.22L1353.5 580.016ZM1323.17 512.935L1256.67 580.024L1238.01 561.199L1304.51 494.11L1323.17 512.935ZM1286.42 561.774L1305.08 542.949L1371.58 610.038L1352.92 628.863L1286.42 561.774ZM1419.99 610.613L1353.49 677.702L1334.83 658.876L1401.33 591.787L1419.99 610.613ZM1329.38 441.154L1294.96 406.432L1329.38 371.71L1363.8 406.432L1329.38 441.154ZM1329.38 797.29L1294.96 762.568L1329.38 727.846L1363.8 762.568L1329.38 797.29Z" stroke="white"/>
<path opacity="0.2" d="M-271.873 615.56L-248.308 591.787L-229.648 610.612L-272.227 653.569L-339.296 585.906L-272.228 518.242L-181.239 610.038L-199.899 628.862L-271.873 556.25L-272.228 555.892L-272.583 556.25L-301.628 585.553L-301.977 585.905L-301.628 586.257L-272.583 615.56L-272.228 615.919L-271.873 615.56ZM-175.409 420.565L-84.4205 512.36L-103.081 531.186L-175.054 458.574L-175.409 458.215L-175.765 458.574L-204.81 487.877L-205.159 488.229L-204.81 488.581L-181.239 512.361L-199.898 531.186L-242.478 488.228L-175.409 420.565ZM-150.921 640.627L-78.9474 713.239L-78.5923 713.598L-78.2372 713.239L-49.1917 683.936L-48.8428 683.584L-49.1917 683.232L-72.7626 659.452L-54.1017 640.626L-11.5223 683.583L-78.5911 751.247L-169.58 659.451L-150.921 640.627ZM-54.1013 542.949L17.8726 615.562L18.2277 615.92L18.5828 615.562L47.6282 586.258L47.9771 585.906L47.6282 585.554L18.5827 556.251L18.2276 555.893L17.8725 556.251L-5.69214 580.025L-24.3522 561.199L18.2273 518.242L85.296 585.906L18.2273 653.57L-72.7613 561.774L-54.1013 542.949ZM-175.054 713.237L-151.49 689.464L-132.83 708.289L-175.409 751.247L-242.478 683.583L-151.49 591.786L-132.83 610.612L-204.81 683.23L-205.159 683.582L-204.81 683.934L-175.765 713.237L-175.409 713.596L-175.054 713.237ZM-102.503 580.016L-121.162 561.191L-49.1823 488.572L-48.8333 488.22L-49.1823 487.868L-78.2278 458.565L-78.5829 458.207L-78.938 458.565L-102.503 482.339L-121.162 463.514L-78.5832 420.556L-11.5145 488.22L-102.503 580.016ZM-132.83 512.935L-199.33 580.024L-217.989 561.199L-151.49 494.11L-132.83 512.935ZM-169.579 561.774L-150.92 542.949L-84.4207 610.038L-103.08 628.863L-169.579 561.774ZM-36.0116 610.613L-102.511 677.702L-121.171 658.876L-54.6716 591.787L-36.0116 610.613ZM-126.619 441.154L-161.036 406.432L-126.619 371.71L-92.2025 406.432L-126.619 441.154ZM-126.619 797.29L-161.035 762.568L-126.619 727.846L-92.2023 762.568L-126.619 797.29Z" stroke="white"/>
<path opacity="0.2" d="M212.127 122.56L235.692 98.7867L254.352 117.612L211.773 160.569L144.704 92.9057L211.772 25.242L302.761 117.038L284.101 135.862L212.127 63.2502L211.772 62.892L211.417 63.2502L182.372 92.5534L182.023 92.9053L182.372 93.2573L211.417 122.56L211.772 122.919L212.127 122.56ZM308.591 -72.4353L399.579 19.3604L380.919 38.1859L308.946 -34.4263L308.591 -34.7846L308.235 -34.4263L279.19 -5.12319L278.841 -4.7712L279.19 -4.41921L302.761 19.3608L284.102 38.1856L241.522 -4.77158L308.591 -72.4353ZM333.079 147.627L405.053 220.239L405.408 220.598L405.763 220.239L434.808 190.936L435.157 190.584L434.808 190.232L411.237 166.452L429.898 147.626L472.478 190.583L405.409 258.247L314.42 166.451L333.079 147.627ZM429.899 49.9492L501.873 122.562L502.228 122.92L502.583 122.562L531.628 93.2584L531.977 92.9064L531.628 92.5544L502.583 63.2513L502.228 62.893L501.873 63.2513L478.308 87.025L459.648 68.1994L502.227 25.2423L569.296 92.906L502.227 160.57L411.239 68.774L429.899 49.9492ZM308.946 220.237L332.51 196.464L351.17 215.289L308.591 258.247L241.522 190.583L332.51 98.7863L351.17 117.612L279.19 190.23L278.841 190.582L279.19 190.934L308.235 220.237L308.591 220.596L308.946 220.237ZM381.497 87.0155L362.838 68.1908L434.818 -4.4278L435.167 -4.77979L434.818 -5.13178L405.772 -34.4349L405.417 -34.7932L405.062 -34.4349L381.497 -10.6612L362.838 -29.486L405.417 -72.4439L472.486 -4.7802L381.497 87.0155ZM351.17 19.935L284.67 87.0242L266.011 68.1994L332.51 1.11025L351.17 19.935ZM314.421 68.7737L333.08 49.9489L399.579 117.038L380.92 135.863L314.421 68.7737ZM447.988 117.613L381.489 184.702L362.829 165.876L429.328 98.7871L447.988 117.613ZM357.381 -51.8462L322.964 -86.568L357.381 -121.29L391.797 -86.568L357.381 -51.8462ZM357.381 304.29L322.965 269.568L357.381 234.846L391.798 269.568L357.381 304.29Z" stroke="white"/>
<path opacity="0.2" d="M212.127 615.56L235.692 591.787L254.352 610.612L211.773 653.569L144.704 585.906L211.772 518.242L302.761 610.038L284.101 628.862L212.127 556.25L211.772 555.892L211.417 556.25L182.372 585.553L182.023 585.905L182.372 586.257L211.417 615.56L211.772 615.919L212.127 615.56ZM308.591 420.565L399.579 512.36L380.919 531.186L308.946 458.574L308.591 458.215L308.235 458.574L279.19 487.877L278.841 488.229L279.19 488.581L302.761 512.361L284.102 531.186L241.522 488.228L308.591 420.565ZM333.079 640.627L405.053 713.239L405.408 713.598L405.763 713.239L434.808 683.936L435.157 683.584L434.808 683.232L411.237 659.452L429.898 640.626L472.478 683.583L405.409 751.247L314.42 659.451L333.079 640.627ZM429.899 542.949L501.873 615.562L502.228 615.92L502.583 615.562L531.628 586.258L531.977 585.906L531.628 585.554L502.583 556.251L502.228 555.893L501.873 556.251L478.308 580.025L459.648 561.199L502.227 518.242L569.296 585.906L502.227 653.57L411.239 561.774L429.899 542.949ZM308.946 713.237L332.51 689.464L351.17 708.289L308.591 751.247L241.522 683.583L332.51 591.786L351.17 610.612L279.19 683.23L278.841 683.582L279.19 683.934L308.235 713.237L308.591 713.596L308.946 713.237ZM381.497 580.016L362.838 561.191L434.818 488.572L435.167 488.22L434.818 487.868L405.772 458.565L405.417 458.207L405.062 458.565L381.497 482.339L362.838 463.514L405.417 420.556L472.486 488.22L381.497 580.016ZM351.17 512.935L284.67 580.024L266.011 561.199L332.51 494.11L351.17 512.935ZM314.421 561.774L333.08 542.949L399.579 610.038L380.92 628.863L314.421 561.774ZM447.988 610.613L381.489 677.702L362.829 658.876L429.328 591.787L447.988 610.613ZM357.381 441.154L322.964 406.432L357.381 371.71L391.797 406.432L357.381 441.154ZM357.381 797.29L322.965 762.568L357.381 727.846L391.798 762.568L357.381 797.29Z" stroke="white"/>
</g>
<defs>
<clipPath id="clip0_2881_141">
<rect width="1200" height="675" fill="white"/>
</clipPath>
</defs>
</svg>
